# xmcd CD database file
#
# Track frame offsets:
#	150
#	12130
#	28464
#	44324
#	58234
#	73666
#	89146
#	116762
#	132287
#	146534
#	156262
#	167209
#
# Disc length: 2442 seconds
#
# Revision: 2
# Processed by: cddbd v1.5.2PL0 Copyright (c) Steve Scherf et al.
# Submitted via: CDex 1.70beta3
#
DISCID=b409880c
DTITLE=ヒカシュー - うわさの人類
DYEAR=1992
DGENRE=Rock
TTITLE0=ト・アイスクロン
TTITLE1=うわさの人類
TTITLE2=出来事
TTITLE3=体温
TTITLE4=新しい部族
TTITLE5=予期せぬ結合
TTITLE6=アウト・キャスト
TTITLE7=二枚舌の男
TTITLE8=恋人たち
TTITLE9=小人のハンス
TTITLE10=ONE OF US
TTITLE11=匂い
EXTD=YEAR: 1992
EXTT0=
EXTT1=
EXTT2=
EXTT3=
EXTT4=
EXTT5=
EXTT6=
EXTT7=
EXTT8=
EXTT9=
EXTT10=
EXTT11=
PLAYORDER=
